<svg data-name="Layer 1" xmlns="http://www.w3.org/2000/svg" width="835.459" height="645.47"><path d="M800.84 564.765c-3.317-26.678-19.85-52.964-45.293-61.646a123.863 123.863 0 0 1-.007 85.04c-3.91 10.576-9.359 21.931-5.681 32.59 2.288 6.631 7.885 11.705 14.142 14.878 6.258 3.173 13.202 4.685 20.06 6.167l1.349 1.116c10.886-24.581 18.749-51.467 15.43-78.145z" fill="#f0f0f0"/><path d="M755.294 503.624a105.87 105.87 0 0 1 26.32 59.583 45.591 45.591 0 0 1-.52 14.275 26.149 26.149 0 0 1-6.503 12.129c-2.931 3.22-6.303 6.175-8.4 10.052a16.01 16.01 0 0 0-.782 13.07c1.852 5.312 5.501 9.64 9.218 13.75 4.126 4.563 8.484 9.237 10.238 15.285.212.733 1.337.36 1.125-.371-3.052-10.524-13.268-16.502-18.14-25.98-2.273-4.424-3.227-9.559-1.096-14.228 1.863-4.082 5.337-7.132 8.334-10.368a27.903 27.903 0 0 0 6.8-11.622 42.148 42.148 0 0 0 1.066-14.202 102.712 102.712 0 0 0-7.502-31.214 107.747 107.747 0 0 0-19.374-31.048c-.507-.567-1.287.325-.784.889z" fill="#fff"/><path d="M781.294 556.037a15.884 15.884 0 0 0 12.091-16.64c-.06-.76-1.244-.701-1.184.06a14.708 14.708 0 0 1-11.278 15.455c-.742.176-.366 1.3.371 1.125zm-5.002 32.136a30.615 30.615 0 0 1-13.67-17.632c-.216-.732-1.34-.36-1.126.372a31.844 31.844 0 0 0 14.264 18.319c.657.39 1.186-.671.532-1.059zm-6.579-64.646a8.991 8.991 0 0 1-8.52-.432c-.652-.398-1.181.663-.534 1.058a10.075 10.075 0 0 0 9.425.5.612.612 0 0 0 .377-.749.595.595 0 0 0-.748-.377z" fill="#fff"/><path d="M677.993 550.77c.4.26.8.52 1.2.79a118.407 118.407 0 0 1 15.14 11.82c.37.33.74.67 1.1 1.01a124.827 124.827 0 0 1 27.11 37.11 121.222 121.222 0 0 1 6.64 17.18c2.45 8.13 4.46 17.14 9.31 23.79a20.796 20.796 0 0 0 1.62 2h43.83c.1-.05.2-.09.3-.14l1.75.08c-.07-.31-.15-.63-.22-.94-.04-.18-.09-.36-.13-.54-.03-.12-.06-.24-.08-.35-.01-.04-.02-.08-.03-.11-.02-.11-.05-.21-.07-.31q-.66-2.685-1.36-5.37c0-.01 0-.01-.01-.02-3.59-13.63-8.35-27.08-15-39.38-.2-.37-.4-.75-.62-1.12a115.674 115.674 0 0 0-10.39-15.76 102.258 102.258 0 0 0-6.81-7.79 85.037 85.037 0 0 0-21.28-15.94c-15.72-8.3-33.92-11.48-50.72-6.41-.43.13-.85.26-1.28.4z" fill="#f0f0f0"/><path d="M678.092 551.326a105.87 105.87 0 0 1 56.887 31.728 45.591 45.591 0 0 1 8.18 11.71 26.149 26.149 0 0 1 2.11 13.6c-.401 4.336-1.314 8.725-.654 13.083a16.01 16.01 0 0 0 7.245 10.907c4.676 3.126 10.196 4.385 15.637 5.429 6.042 1.159 12.336 2.267 17.378 6.04.61.458 1.284-.517.674-.974-8.772-6.565-20.528-5.188-30.125-9.823-4.478-2.162-8.332-5.688-9.441-10.699-.97-4.382-.033-8.909.412-13.296a27.903 27.903 0 0 0-1.567-13.374 42.148 42.148 0 0 0-7.7-11.981 102.712 102.712 0 0 0-24.783-20.406 107.747 107.747 0 0 0-34.162-13.126c-.746-.148-.832 1.035-.091 1.182z" fill="#fff"/><path d="M730.408 577.521a15.884 15.884 0 0 0-.364-20.565c-.506-.57-1.416.189-.91.76a14.708 14.708 0 0 1 .3 19.13c-.486.588.49 1.259.974.675zm15.354 28.671a30.615 30.615 0 0 1-21.531-5.847c-.613-.455-1.287.52-.675.974a31.844 31.844 0 0 0 22.418 6.038c.76-.084.543-1.25-.212-1.165zm-44.174-47.655a8.991 8.991 0 0 1-7.064 4.784c-.76.075-.543 1.24.212 1.166a10.075 10.075 0 0 0 7.826-5.275.612.612 0 0 0-.15-.825.595.595 0 0 0-.824.15z" fill="#fff"/><path data-name="Path 1" d="M607.42 95.98 84.337.146a8.036 8.036 0 0 0-3.22.038 6.64 6.64 0 0 0-2.642 1.234 6.214 6.214 0 0 0-1.788 2.227 6.938 6.938 0 0 0-.657 3.008v468.623a6.941 6.941 0 0 0 .655 3.009 6.214 6.214 0 0 0 1.786 2.228 6.64 6.64 0 0 0 2.64 1.236 8.034 8.034 0 0 0 3.22.04L607.42 385.95a2.475 2.475 0 0 0 1.163-.59 4.426 4.426 0 0 0 .947-1.2 6.729 6.729 0 0 0 .637-1.637 7.865 7.865 0 0 0 .234-1.9v-279.3a7.866 7.866 0 0 0-.233-1.905 6.736 6.736 0 0 0-.637-1.638 4.433 4.433 0 0 0-.947-1.2 2.48 2.48 0 0 0-1.163-.591z" fill="#e4e4e4"/><path data-name="Path 1" d="M615.42 95.98 92.337.146a8.036 8.036 0 0 0-3.22.038 6.64 6.64 0 0 0-2.642 1.234 6.214 6.214 0 0 0-1.788 2.227 6.938 6.938 0 0 0-.657 3.008v468.623a6.941 6.941 0 0 0 .655 3.009 6.214 6.214 0 0 0 1.786 2.228 6.64 6.64 0 0 0 2.64 1.236 8.034 8.034 0 0 0 3.22.04L615.42 385.95a2.475 2.475 0 0 0 1.163-.59 4.426 4.426 0 0 0 .947-1.2 6.729 6.729 0 0 0 .637-1.637 7.865 7.865 0 0 0 .234-1.9v-279.3a7.866 7.866 0 0 0-.233-1.905 6.736 6.736 0 0 0-.637-1.638 4.433 4.433 0 0 0-.947-1.2 2.48 2.48 0 0 0-1.163-.591z" fill="#fff"/><path data-name="Path 2" d="M615.42 95.98 92.337.146a8.036 8.036 0 0 0-3.22.038 6.64 6.64 0 0 0-2.642 1.234 6.214 6.214 0 0 0-1.788 2.227 6.938 6.938 0 0 0-.657 3.008v468.623a6.941 6.941 0 0 0 .655 3.009 6.214 6.214 0 0 0 1.786 2.228 6.64 6.64 0 0 0 2.64 1.236 8.034 8.034 0 0 0 3.22.04L615.42 385.95a2.475 2.475 0 0 0 1.163-.59 4.426 4.426 0 0 0 .947-1.2 6.729 6.729 0 0 0 .637-1.637 7.865 7.865 0 0 0 .234-1.9v-279.3a7.866 7.866 0 0 0-.233-1.905 6.736 6.736 0 0 0-.637-1.638 4.433 4.433 0 0 0-.947-1.2 2.48 2.48 0 0 0-1.163-.591zm1.99 284.813a5.247 5.247 0 0 1-.156 1.272 4.49 4.49 0 0 1-.425 1.093 2.95 2.95 0 0 1-.632.8 1.649 1.649 0 0 1-.775.392l-523.08 94.773a5.349 5.349 0 0 1-2.145-.03 4.426 4.426 0 0 1-1.757-.825 4.142 4.142 0 0 1-1.188-1.484 4.627 4.627 0 0 1-.436-2V7.15a4.629 4.629 0 0 1 .435-2 4.143 4.143 0 0 1 1.187-1.486 4.423 4.423 0 0 1 1.756-.826 5.35 5.35 0 0 1 2.145-.031l523.083 94.776a1.648 1.648 0 0 1 .775.392 2.95 2.95 0 0 1 .632.8 4.491 4.491 0 0 1 .426 1.092 5.244 5.244 0 0 1 .156 1.272v279.653z" fill="#cacaca"/><path data-name="Path 3" d="M0 146.269A21.866 21.866 0 0 1 1.983 137a19.536 19.536 0 0 1 5.372-6.926 20.088 20.088 0 0 1 7.887-3.913 23.237 23.237 0 0 1 9.529-.287 27.514 27.514 0 0 1 9.389 3.485 30.257 30.257 0 0 1 7.565 6.386 29.632 29.632 0 0 1 5.05 8.378 26.08 26.08 0 0 1 1.842 9.518 21.937 21.937 0 0 1-1.842 8.96 19.59 19.59 0 0 1-5.05 6.846 19.937 19.937 0 0 1-7.565 4.092 22.86 22.86 0 0 1-9.39.638 27.188 27.188 0 0 1-9.523-3.184 30.185 30.185 0 0 1-7.884-6.305 29.778 29.778 0 0 1-5.373-8.553A26.191 26.191 0 0 1 0 146.269zm0 97A21.866 21.866 0 0 1 1.983 234a19.536 19.536 0 0 1 5.372-6.926 20.088 20.088 0 0 1 7.887-3.913 23.237 23.237 0 0 1 9.529-.287 27.514 27.514 0 0 1 9.389 3.485 30.257 30.257 0 0 1 7.565 6.386 29.632 29.632 0 0 1 5.05 8.378 26.08 26.08 0 0 1 1.842 9.518 21.937 21.937 0 0 1-1.842 8.96 19.59 19.59 0 0 1-5.05 6.846 19.937 19.937 0 0 1-7.565 4.092 22.86 22.86 0 0 1-9.39.638 27.188 27.188 0 0 1-9.523-3.184 30.185 30.185 0 0 1-7.884-6.305 29.778 29.778 0 0 1-5.373-8.553A26.191 26.191 0 0 1 0 243.269zm0 97A21.866 21.866 0 0 1 1.983 331a19.536 19.536 0 0 1 5.372-6.926 20.088 20.088 0 0 1 7.887-3.913 23.237 23.237 0 0 1 9.529-.287 27.514 27.514 0 0 1 9.389 3.485 30.257 30.257 0 0 1 7.565 6.386 29.632 29.632 0 0 1 5.05 8.378 26.08 26.08 0 0 1 1.842 9.518 21.937 21.937 0 0 1-1.842 8.96 19.59 19.59 0 0 1-5.05 6.846 19.937 19.937 0 0 1-7.565 4.092 22.86 22.86 0 0 1-9.39.638 27.188 27.188 0 0 1-9.523-3.184 30.185 30.185 0 0 1-7.884-6.305 29.778 29.778 0 0 1-5.373-8.553A26.191 26.191 0 0 1 0 340.269z" fill="#e4e4e4"/><path data-name="Path 3" d="M6 146.269A21.866 21.866 0 0 1 7.983 137a19.536 19.536 0 0 1 5.372-6.926 20.088 20.088 0 0 1 7.887-3.913 23.237 23.237 0 0 1 9.529-.287 27.514 27.514 0 0 1 9.389 3.485 30.257 30.257 0 0 1 7.565 6.386 29.632 29.632 0 0 1 5.05 8.378 26.08 26.08 0 0 1 1.842 9.518 21.937 21.937 0 0 1-1.842 8.96 19.59 19.59 0 0 1-5.05 6.846 19.937 19.937 0 0 1-7.565 4.092 22.86 22.86 0 0 1-9.39.638 27.188 27.188 0 0 1-9.523-3.184 30.185 30.185 0 0 1-7.884-6.305 29.778 29.778 0 0 1-5.373-8.553A26.191 26.191 0 0 1 6 146.269z" fill="#009817"/><path data-name="Path 4" d="M6 242.608a22.865 22.865 0 0 1 1.982-9.418 21.7 21.7 0 0 1 5.372-7.32 21.994 21.994 0 0 1 7.887-4.5 23.587 23.587 0 0 1 9.529-.991 25.758 25.758 0 0 1 9.389 2.79 27.178 27.178 0 0 1 7.565 5.827 26.864 26.864 0 0 1 5.05 8 25.028 25.028 0 0 1 1.84 9.393 22.9 22.9 0 0 1-1.841 9.1 21.766 21.766 0 0 1-12.615 11.87 23.394 23.394 0 0 1-9.39 1.331 25.609 25.609 0 0 1-9.523-2.48A27.214 27.214 0 0 1 7.99 252.325 25.1 25.1 0 0 1 6 242.607z" fill="#009817"/><path data-name="Path 5" d="M6 338.947a23.912 23.912 0 0 1 7.354-17.281 24.417 24.417 0 0 1 39.415 8.223 24.109 24.109 0 0 1-22 33.304 24.465 24.465 0 0 1-22.78-14.675 24.029 24.029 0 0 1-1.988-9.571z" fill="#009817"/><path data-name="Path 6" d="m21.11 146.159 7.262 1.116v-7.16a2.154 2.154 0 0 1 .186-.9 1.91 1.91 0 0 1 .513-.678 1.955 1.955 0 0 1 .762-.391 2.269 2.269 0 0 1 .933-.04 2.713 2.713 0 0 1 .933.334 3.01 3.01 0 0 1 .762.63 2.959 2.959 0 0 1 .515.837 2.59 2.59 0 0 1 .19.955v7.15l7.125 1.093a2.641 2.641 0 0 1 .918.327 2.947 2.947 0 0 1 1.254 1.448 2.573 2.573 0 0 1 .185.947 2.16 2.16 0 0 1-.185.89 1.917 1.917 0 0 1-.5.675 1.941 1.941 0 0 1-.75.394 2.221 2.221 0 0 1-.917.048l-7.134-1.067v7.134a2.17 2.17 0 0 1-.188.9 1.95 1.95 0 0 1-.512.683 1.99 1.99 0 0 1-.76.4 2.274 2.274 0 0 1-.932.054 2.676 2.676 0 0 1-.934-.32 2.947 2.947 0 0 1-.763-.62 2.9 2.9 0 0 1-.515-.832 2.566 2.566 0 0 1-.186-.957v-7.16l-7.262-1.09a2.75 2.75 0 0 1-.948-.331 3.023 3.023 0 0 1-.775-.631 2.95 2.95 0 0 1-.523-.838 2.58 2.58 0 0 1-.192-.967 2.16 2.16 0 0 1 .192-.907 1.941 1.941 0 0 1 .523-.684 2.005 2.005 0 0 1 .775-.4 2.325 2.325 0 0 1 .948-.042z" fill="#fff"/><path data-name="Path 7" d="m26.207 250.933 20.166 1.462h.074l-9.457-17.17a.756.756 0 0 0-.245-.269.736.736 0 0 0-.161-.08.7.7 0 0 0-.177-.04.652.652 0 0 0-.176.008.614.614 0 0 0-.161.055.589.589 0 0 0-.245.227l-6.435 10.578-.31.509z" fill="#fff"/><path data-name="Path 8" d="m14.698 250.098 17.792 1.29-3.41-5.176-.246-.374-4.472-6.79a1.021 1.021 0 0 0-.291-.261 1 1 0 0 0-.173-.082.963.963 0 0 0-.192-.047.917.917 0 0 0-.191-.007.876.876 0 0 0-.183.032.83.83 0 0 0-.17.07.806.806 0 0 0-.15.106l-.014.018-.02.018-.014.019-.015.019z" fill="#fff"/><path data-name="Ellipse 1" d="M28.153 232.399a3.219 3.219 0 0 1 1.177.336 3.415 3.415 0 0 1 .959.725 3.373 3.373 0 0 1 .646 1.008 3.119 3.119 0 0 1 .237 1.186 2.827 2.827 0 0 1-.237 1.146 2.671 2.671 0 0 1-.646.9 2.708 2.708 0 0 1-.96.563 2.92 2.92 0 0 1-1.176.139 3.216 3.216 0 0 1-1.18-.333 3.414 3.414 0 0 1-.963-.724 3.374 3.374 0 0 1-.651-1.01 3.12 3.12 0 0 1-.24-1.192 2.827 2.827 0 0 1 .24-1.15 2.671 2.671 0 0 1 .65-.9 2.71 2.71 0 0 1 .965-.558 2.924 2.924 0 0 1 1.179-.136z" fill="#fff"/><path data-name="Rectangle 2" d="m245.764 300.844 199.68-189.457.856 1.5-199.288 189.56z" fill="#e6e6e6"/><path data-name="Rectangle 3" d="m245.796 86.11 1.252-1.5 199.234 206.826-.86 1.425z" fill="#e6e6e6"/><path data-name="Path 9" d="m443.424 108.62-194.1-26.665a5.967 5.967 0 0 0-2.675.228 5.75 5.75 0 0 0-2.193 1.324 6.393 6.393 0 0 0-1.485 2.2 7.6 7.6 0 0 0-.547 2.878v208.94a7.948 7.948 0 0 0 .547 2.92 7.15 7.15 0 0 0 1.484 2.328 6.423 6.423 0 0 0 2.193 1.5 6.153 6.153 0 0 0 2.675.448l194.1-10.69a3.936 3.936 0 0 0 1.846-.6 5.323 5.323 0 0 0 1.5-1.421 7.09 7.09 0 0 0 1.01-2.037 8.192 8.192 0 0 0 .37-2.446v-172.02a8.5 8.5 0 0 0-.37-2.477 7.807 7.807 0 0 0-1.01-2.12 6.016 6.016 0 0 0-1.5-1.545 4.253 4.253 0 0 0-1.845-.744zm-194.1 193.95a4.394 4.394 0 0 1-1.91-.323 4.589 4.589 0 0 1-1.563-1.074 5.109 5.109 0 0 1-1.058-1.666 5.679 5.679 0 0 1-.39-2.083V88.844a5.43 5.43 0 0 1 .39-2.051 4.569 4.569 0 0 1 1.058-1.574 4.108 4.108 0 0 1 1.564-.945 4.259 4.259 0 0 1 1.909-.167l194.1 26.305a3.035 3.035 0 0 1 1.319.532 4.294 4.294 0 0 1 1.074 1.1 5.575 5.575 0 0 1 .723 1.515 6.07 6.07 0 0 1 .266 1.77v172.268a5.854 5.854 0 0 1-.266 1.75 5.063 5.063 0 0 1-.723 1.456 3.8 3.8 0 0 1-1.074 1.014 2.809 2.809 0 0 1-1.32.423z" fill="#e6e6e6"/><g data-name="b12ed9b2-cc32-4c4f-a9d5-2d1deb4d0e3e"><path data-name="Path 14" d="M242.894 326.785a2.96 2.96 0 0 0-1.427.554 4.493 4.493 0 0 0-1.158 1.251 6.417 6.417 0 0 0-.772 1.758 7.545 7.545 0 0 0-.267 2.082 7.013 7.013 0 0 0 .3 1.987 5.277 5.277 0 0 0 .78 1.58 3.515 3.515 0 0 0 1.147 1.023 2.6 2.6 0 0 0 1.4.315L582.7 309.198a1.164 1.164 0 0 0 .718-.329 2.717 2.717 0 0 0 .59-.828 5.284 5.284 0 0 0 .4-1.2 7.289 7.289 0 0 0 .156-1.458 7.068 7.068 0 0 0-.132-1.445 4.807 4.807 0 0 0-.384-1.169 2.34 2.34 0 0 0-.574-.779 1.046 1.046 0 0 0-.714-.264h-.06z" fill="#e6e6e6"/></g><g data-name="e10bb4bc-6df1-41b6-ac46-84090840b498"><path data-name="Path 15" d="M242.894 358.806a3.043 3.043 0 0 0-1.427.593 4.68 4.68 0 0 0-1.158 1.278 6.612 6.612 0 0 0-.772 1.779 7.623 7.623 0 0 0-.267 2.095 6.927 6.927 0 0 0 .3 1.979 5.107 5.107 0 0 0 .78 1.559 3.376 3.376 0 0 0 1.145.99 2.556 2.556 0 0 0 1.4.278L582.7 331.87a1.2 1.2 0 0 0 .718-.35 2.824 2.824 0 0 0 .59-.844 5.418 5.418 0 0 0 .4-1.216 7.352 7.352 0 0 0 .156-1.463 7.015 7.015 0 0 0-.132-1.442 4.692 4.692 0 0 0-.384-1.158 2.249 2.249 0 0 0-.577-.76 1.021 1.021 0 0 0-.714-.245h-.06z" fill="#e6e6e6"/></g><g data-name="e3c0a870-6a35-4470-a43f-0902a465f5fb"><path data-name="Path 16" d="M242.894 390.308a3.132 3.132 0 0 0-1.427.632 4.868 4.868 0 0 0-1.158 1.31 6.81 6.81 0 0 0-.772 1.8 7.7 7.7 0 0 0-.267 2.1 6.843 6.843 0 0 0 .3 1.97 4.944 4.944 0 0 0 .78 1.539 3.246 3.246 0 0 0 1.145.96 2.519 2.519 0 0 0 1.4.239L582.7 354.175a1.238 1.238 0 0 0 .718-.368 2.934 2.934 0 0 0 .59-.861 5.548 5.548 0 0 0 .4-1.227 7.415 7.415 0 0 0 .156-1.467 6.961 6.961 0 0 0-.132-1.438 4.578 4.578 0 0 0-.384-1.148 2.163 2.163 0 0 0-.577-.744 1 1 0 0 0-.714-.226h-.06z" fill="#e6e6e6"/></g><path data-name="Path 17" d="m40.464 328.8-19.398-.231a2.761 2.761 0 0 0-.954.135 2.726 2.726 0 0 0-.823.437 2.68 2.68 0 0 0-.624.687 2.653 2.653 0 0 0-.355.883 2.579 2.579 0 0 0 .057 1.124 2.615 2.615 0 0 0 .21.527 2.659 2.659 0 0 0 .743.873 2.694 2.694 0 0 0 1.605.547l5.834.053a1.413 1.413 0 0 1 1.29.857 1.379 1.379 0 0 1 .11.54v11.445a2.665 2.665 0 0 0 .594 1.739 2.692 2.692 0 0 0 1.579.95 2.613 2.613 0 0 0 2.8-1.472 2.581 2.581 0 0 0 .242-1.09v-11.54a1.371 1.371 0 0 1 1.372-1.37h.013l5.573.045a2.629 2.629 0 0 0 2.663-2.113 2.6 2.6 0 0 0-2.531-3.025z" fill="#fff"/><path data-name="Ellipse 2" d="M40.465 344.219a2.575 2.575 0 1 1-2.371 1.573 2.567 2.567 0 0 1 2.37-1.573z" fill="#fff"/><path d="M495.112 192.56a13.39 13.39 0 0 1-.433 2.064l40.436 48.415 15.102-2.602 6.906 22.278-26.287 7.205a10.176 10.176 0 0 1-11.36-4.485l-37.58-61.139a13.352 13.352 0 1 1 13.216-11.736z" fill="#ffb6b6"/><path d="M536.905 240.34a5.718 5.718 0 0 1 3.966-2.643l28.37-4.524a15.896 15.896 0 0 1 9.65 30.292l-25.92 12.602a5.724 5.724 0 0 1-7.962-3.427l-8.694-27.57a5.717 5.717 0 0 1 .59-4.73z" fill="#3f3d56"/><path fill="#ffb6b6" d="M538.487 632.518h-12.26l-5.832-47.288 18.094.001-.002 47.287z"/><path d="m541.613 644.402-39.53-.001v-.5a15.387 15.387 0 0 1 15.386-15.386h24.145z" fill="#2f2e41"/><path fill="#ffb6b6" d="M666.487 632.518h-12.26l-5.832-47.288 18.094.001-.002 47.287z"/><path d="m669.613 644.402-39.53-.001v-.5a15.387 15.387 0 0 1 15.386-15.386h24.145zM543.274 344.47l53.125-15.352c19.353 13.726 32.715 41.24 28.388 76.839-6.974 57.368 33.399 131.13 50.81 205.869l-30.108.946-65.93-157.78-38.652 161.065-26.895.845 17.985-221.769z" fill="#2f2e41"/><circle cx="566.93" cy="177.474" r="27.482" fill="#ffb6b6"/><path d="M538.967 299.677c-6.074-10.663-9.076-23.613-3.789-34.687 1.332-2.788 4.962-5.424 6.862-7.861l21.234-31.66 23.976-3.856c20.749 17.402 3.024 76.857 20.024 115.857l-71 38c5.075-19.382 11.924-59.59 2.693-75.793z" fill="#3f3d56"/><path d="M539.274 166.47s1.86-3.447 13 1c3.898 1.556 5.726 1.198 5.98 4.585a64.62 64.62 0 0 0 13.396 35.034l.085.11 5.57-5.082 7.16 5.717 30.233.635s4.774-23.504-11.138-50.185-48.533-12.07-48.533-12.07c-22.278 1.27-15.753 20.256-15.753 20.256z" fill="#2f2e41"/><path data-name="Path 9" d="m469.114 131.342-194.1-26.666a5.967 5.967 0 0 0-2.675.228 5.75 5.75 0 0 0-2.193 1.324 6.393 6.393 0 0 0-1.485 2.2 7.6 7.6 0 0 0-.547 2.878v208.94a7.948 7.948 0 0 0 .547 2.92 7.15 7.15 0 0 0 1.484 2.328 6.423 6.423 0 0 0 2.193 1.5 6.153 6.153 0 0 0 2.675.448l194.1-10.69a3.936 3.936 0 0 0 1.846-.6 5.323 5.323 0 0 0 1.5-1.42 7.09 7.09 0 0 0 1.01-2.038 8.192 8.192 0 0 0 .37-2.446v-172.02a8.5 8.5 0 0 0-.37-2.477 7.807 7.807 0 0 0-1.01-2.12 6.016 6.016 0 0 0-1.5-1.545 4.253 4.253 0 0 0-1.845-.744z" fill="#009817"/><path data-name="Path 9" d="m469.114 131.342-194.1-26.666a5.967 5.967 0 0 0-2.675.228 5.75 5.75 0 0 0-2.193 1.324 6.393 6.393 0 0 0-1.485 2.2 7.6 7.6 0 0 0-.547 2.878v208.94a7.948 7.948 0 0 0 .547 2.92 7.15 7.15 0 0 0 1.484 2.328 6.423 6.423 0 0 0 2.193 1.5 6.153 6.153 0 0 0 2.675.448l194.1-10.69a3.936 3.936 0 0 0 1.846-.6 5.323 5.323 0 0 0 1.5-1.42 7.09 7.09 0 0 0 1.01-2.038 8.192 8.192 0 0 0 .37-2.446v-172.02a8.5 8.5 0 0 0-.37-2.477 7.807 7.807 0 0 0-1.01-2.12 6.016 6.016 0 0 0-1.5-1.545 4.253 4.253 0 0 0-1.845-.744z" opacity=".2"/><path data-name="Path 9" d="m477.114 131.342-194.1-26.666a5.967 5.967 0 0 0-2.675.228 5.75 5.75 0 0 0-2.193 1.324 6.393 6.393 0 0 0-1.485 2.2 7.6 7.6 0 0 0-.547 2.878v208.94a7.948 7.948 0 0 0 .547 2.92 7.15 7.15 0 0 0 1.484 2.328 6.423 6.423 0 0 0 2.193 1.5 6.153 6.153 0 0 0 2.675.448l194.1-10.69a3.936 3.936 0 0 0 1.846-.6 5.323 5.323 0 0 0 1.5-1.42 7.09 7.09 0 0 0 1.01-2.038 8.192 8.192 0 0 0 .37-2.446v-172.02a8.5 8.5 0 0 0-.37-2.477 7.807 7.807 0 0 0-1.01-2.12 6.016 6.016 0 0 0-1.5-1.545 4.253 4.253 0 0 0-1.845-.744z" fill="#009817"/><path d="M476.28 298.383a13.39 13.39 0 0 1 1.468 1.514l62.754-6.415 6.295-13.972 22.328 6.745-8.741 25.817a10.176 10.176 0 0 1-10.074 6.904l-71.7-3.072a13.352 13.352 0 1 1-2.33-17.521z" fill="#ffb6b6"/><path d="M539.267 290.488a5.718 5.718 0 0 1 .029-4.766l12.127-26.043a15.896 15.896 0 0 1 30.505 8.957l-4.062 28.533a5.724 5.724 0 0 1-7.296 4.68l-27.713-8.225a5.717 5.717 0 0 1-3.59-3.136z" fill="#3f3d56"/><path d="M834.459 645.47h-381a1 1 0 0 1 0-2h381a1 1 0 0 1 0 2z" fill="#cacaca"/></svg>